<svg width="2491" height="1000" viewBox="0 0 2491 1000" fill="none" xmlns="http://www.w3.org/2000/svg">
<rect width="2491" height="1000" rx="50" fill="black"/>
<rect width="1000" height="1000" rx="100" fill="black"/>
<path d="M320.902 450.613C320.902 431.283 336.572 415.613 355.902 415.613C375.232 415.613 390.902 431.283 390.902 450.613V795.613C390.902 817.705 372.994 835.613 350.902 835.613H320.902V450.613Z" fill="#0075FF"/>
<path d="M581.168 451.433C581.168 432.103 565.498 416.433 546.168 416.433V416.433C526.838 416.433 511.168 432.103 511.168 451.433V801.433C511.168 820.763 526.838 836.433 546.168 836.433V836.433C565.498 836.433 581.168 820.763 581.168 801.433V451.433Z" fill="#0075FF"/>
<rect x="60.1875" y="319.802" width="70" height="355.512" rx="35" transform="rotate(-60 60.1875 319.802)" fill="#0075FF"/>
<rect width="70" height="355.512" rx="35" transform="matrix(-0.5 -0.866025 -0.866025 0.5 841.883 320.622)" fill="#0075FF"/>
<path d="M404 560.257C521.187 370.354 595.54 703.027 720 560.257" stroke="#FF7A00" stroke-width="53" stroke-linecap="round"/>
<path d="M73 647C73 592.324 117.324 548 172 548H321V836H172C117.324 836 73 791.676 73 737V647Z" fill="#0075FF"/>
<path d="M129 678C129 639.34 160.34 608 199 608H321V775H199C160.34 775 129 743.66 129 705V678Z" fill="black"/>
<circle cx="888" cy="483" r="85" fill="#585858"/>
<path d="M831 548H945L923.104 836H853.591L831 548Z" fill="#3F4CFF"/>
<path d="M1194.32 228.818C1192.61 214.424 1185.7 203.25 1173.58 195.295C1161.46 187.341 1146.59 183.364 1128.98 183.364C1116.1 183.364 1104.83 185.447 1095.17 189.614C1085.61 193.78 1078.13 199.509 1072.73 206.801C1067.42 214.093 1064.77 222.379 1064.77 231.659C1064.77 239.424 1066.62 246.1 1070.31 251.688C1074.1 257.18 1078.93 261.773 1084.8 265.466C1090.67 269.064 1096.83 272.047 1103.27 274.415C1109.71 276.687 1115.62 278.534 1121.02 279.955L1150.57 287.909C1158.14 289.898 1166.57 292.644 1175.85 296.148C1185.23 299.652 1194.18 304.434 1202.7 310.494C1211.32 316.46 1218.42 324.131 1224.01 333.506C1229.59 342.881 1232.39 354.386 1232.39 368.023C1232.39 383.742 1228.27 397.947 1220.03 410.636C1211.88 423.326 1199.95 433.411 1184.23 440.892C1168.61 448.373 1149.62 452.114 1127.27 452.114C1106.44 452.114 1088.4 448.752 1073.15 442.028C1058 435.305 1046.07 425.93 1037.36 413.903C1028.74 401.877 1023.86 387.909 1022.73 372H1059.09C1060.04 382.985 1063.73 392.076 1070.17 399.273C1076.7 406.375 1084.94 411.678 1094.89 415.182C1104.92 418.591 1115.72 420.295 1127.27 420.295C1140.72 420.295 1152.79 418.117 1163.49 413.761C1174.2 409.311 1182.67 403.155 1188.92 395.295C1195.17 387.341 1198.3 378.061 1198.3 367.455C1198.3 357.795 1195.6 349.936 1190.2 343.875C1184.8 337.814 1177.7 332.89 1168.89 329.102C1160.09 325.314 1150.57 322 1140.34 319.159L1104.55 308.932C1081.82 302.398 1063.83 293.07 1050.57 280.949C1037.31 268.828 1030.68 252.966 1030.68 233.364C1030.68 217.076 1035.09 202.871 1043.89 190.75C1052.79 178.534 1064.73 169.064 1079.69 162.341C1094.74 155.523 1111.55 152.114 1130.11 152.114C1148.86 152.114 1165.53 155.475 1180.11 162.199C1194.7 168.828 1206.25 177.919 1214.77 189.472C1223.39 201.025 1227.94 214.14 1228.41 228.818H1194.32ZM1374.4 451.545C1354.7 451.545 1337.42 446.858 1322.55 437.483C1307.78 428.108 1296.22 414.992 1287.89 398.136C1279.65 381.28 1275.53 361.583 1275.53 339.045C1275.53 316.318 1279.65 296.479 1287.89 279.528C1296.22 262.578 1307.78 249.415 1322.55 240.04C1337.42 230.665 1354.7 225.977 1374.4 225.977C1394.09 225.977 1411.33 230.665 1426.1 240.04C1440.97 249.415 1452.52 262.578 1460.76 279.528C1469.09 296.479 1473.26 316.318 1473.26 339.045C1473.26 361.583 1469.09 381.28 1460.76 398.136C1452.52 414.992 1440.97 428.108 1426.1 437.483C1411.33 446.858 1394.09 451.545 1374.4 451.545ZM1374.4 421.432C1389.36 421.432 1401.67 417.597 1411.33 409.926C1420.99 402.256 1428.14 392.17 1432.78 379.67C1437.42 367.17 1439.74 353.629 1439.74 339.045C1439.74 324.462 1437.42 310.873 1432.78 298.278C1428.14 285.684 1420.99 275.504 1411.33 267.739C1401.67 259.973 1389.36 256.091 1374.4 256.091C1359.43 256.091 1347.12 259.973 1337.46 267.739C1327.81 275.504 1320.66 285.684 1316.02 298.278C1311.38 310.873 1309.06 324.462 1309.06 339.045C1309.06 353.629 1311.38 367.17 1316.02 379.67C1320.66 392.17 1327.81 402.256 1337.46 409.926C1347.12 417.597 1359.43 421.432 1374.4 421.432ZM1661.93 357.795V228.818H1695.45V447H1661.93V410.068H1659.66C1654.55 421.148 1646.59 430.57 1635.8 438.335C1625 446.006 1611.36 449.841 1594.89 449.841C1581.25 449.841 1569.13 446.858 1558.52 440.892C1547.92 434.831 1539.58 425.741 1533.52 413.619C1527.46 401.403 1524.43 386.015 1524.43 367.455V228.818H1557.95V365.182C1557.95 381.091 1562.41 393.78 1571.31 403.25C1580.3 412.72 1591.76 417.455 1605.68 417.455C1614.02 417.455 1622.49 415.324 1631.11 411.062C1639.82 406.801 1647.11 400.267 1652.98 391.46C1658.95 382.653 1661.93 371.432 1661.93 357.795ZM1790.38 315.75V447H1756.85V228.818H1789.24V262.909H1792.08C1797.19 251.83 1804.96 242.928 1815.38 236.205C1825.79 229.386 1839.24 225.977 1855.72 225.977C1870.49 225.977 1883.42 229.008 1894.5 235.068C1905.58 241.034 1914.19 250.125 1920.35 262.341C1926.5 274.462 1929.58 289.803 1929.58 308.364V447H1896.06V310.636C1896.06 293.496 1891.61 280.144 1882.71 270.58C1873.8 260.92 1861.59 256.091 1846.06 256.091C1835.36 256.091 1825.79 258.411 1817.37 263.051C1809.03 267.691 1802.45 274.462 1797.62 283.364C1792.79 292.265 1790.38 303.061 1790.38 315.75ZM2073.22 451.545C2055.04 451.545 2038.99 446.953 2025.07 437.767C2011.15 428.487 2000.26 415.419 1992.4 398.562C1984.54 381.612 1980.61 361.583 1980.61 338.477C1980.61 315.561 1984.54 295.674 1992.4 278.818C2000.26 261.962 2011.2 248.941 2025.21 239.756C2039.23 230.57 2055.42 225.977 2073.79 225.977C2088 225.977 2099.22 228.345 2107.46 233.08C2115.79 237.72 2122.14 243.023 2126.49 248.989C2130.94 254.86 2134.4 259.689 2136.86 263.477H2139.7V156.091H2173.22V447H2140.84V413.477H2136.86C2134.4 417.455 2130.89 422.473 2126.35 428.534C2121.8 434.5 2115.32 439.85 2106.89 444.585C2098.46 449.225 2087.24 451.545 2073.22 451.545ZM2077.77 421.432C2091.22 421.432 2102.58 417.928 2111.86 410.92C2121.14 403.818 2128.2 394.017 2133.03 381.517C2137.86 368.922 2140.27 354.386 2140.27 337.909C2140.27 321.621 2137.9 307.369 2133.17 295.153C2128.43 282.843 2121.43 273.278 2112.14 266.46C2102.86 259.547 2091.41 256.091 2077.77 256.091C2063.57 256.091 2051.73 259.737 2042.26 267.028C2032.88 274.225 2025.83 284.027 2021.09 296.432C2016.45 308.742 2014.13 322.568 2014.13 337.909C2014.13 353.439 2016.5 367.549 2021.24 380.239C2026.07 392.833 2033.17 402.871 2042.54 410.352C2052.01 417.739 2063.75 421.432 2077.77 421.432Z" fill="white"/>
<path d="M1194.32 615.818C1192.61 601.424 1185.7 590.25 1173.58 582.295C1161.46 574.341 1146.59 570.364 1128.98 570.364C1116.1 570.364 1104.83 572.447 1095.17 576.614C1085.61 580.78 1078.13 586.509 1072.73 593.801C1067.42 601.093 1064.77 609.379 1064.77 618.659C1064.77 626.424 1066.62 633.1 1070.31 638.688C1074.1 644.18 1078.93 648.773 1084.8 652.466C1090.67 656.064 1096.83 659.047 1103.27 661.415C1109.71 663.687 1115.62 665.534 1121.02 666.955L1150.57 674.909C1158.14 676.898 1166.57 679.644 1175.85 683.148C1185.23 686.652 1194.18 691.434 1202.7 697.494C1211.32 703.46 1218.42 711.131 1224.01 720.506C1229.59 729.881 1232.39 741.386 1232.39 755.023C1232.39 770.742 1228.27 784.947 1220.03 797.636C1211.88 810.326 1199.95 820.411 1184.23 827.892C1168.61 835.373 1149.62 839.114 1127.27 839.114C1106.44 839.114 1088.4 835.752 1073.15 829.028C1058 822.305 1046.07 812.93 1037.36 800.903C1028.74 788.877 1023.86 774.909 1022.73 759H1059.09C1060.04 769.985 1063.73 779.076 1070.17 786.273C1076.7 793.375 1084.94 798.678 1094.89 802.182C1104.92 805.591 1115.72 807.295 1127.27 807.295C1140.72 807.295 1152.79 805.117 1163.49 800.761C1174.2 796.311 1182.67 790.155 1188.92 782.295C1195.17 774.341 1198.3 765.061 1198.3 754.455C1198.3 744.795 1195.6 736.936 1190.2 730.875C1184.8 724.814 1177.7 719.89 1168.89 716.102C1160.09 712.314 1150.57 709 1140.34 706.159L1104.55 695.932C1081.82 689.398 1063.83 680.07 1050.57 667.949C1037.31 655.828 1030.68 639.966 1030.68 620.364C1030.68 604.076 1035.09 589.871 1043.89 577.75C1052.79 565.534 1064.73 556.064 1079.69 549.341C1094.74 542.523 1111.55 539.114 1130.11 539.114C1148.86 539.114 1165.53 542.475 1180.11 549.199C1194.7 555.828 1206.25 564.919 1214.77 576.472C1223.39 588.025 1227.94 601.14 1228.41 615.818H1194.32ZM1307.35 915.818C1301.67 915.818 1296.6 915.345 1292.15 914.398C1287.7 913.545 1284.62 912.693 1282.92 911.841L1291.44 882.295C1299.59 884.379 1306.78 885.136 1313.03 884.568C1319.28 884 1324.82 881.206 1329.65 876.188C1334.58 871.263 1339.07 863.261 1343.15 852.182L1349.4 835.136L1268.71 615.818H1305.08L1365.31 789.682H1367.58L1427.81 615.818H1464.17L1371.56 865.818C1367.39 877.087 1362.23 886.415 1356.07 893.801C1349.92 901.282 1342.77 906.822 1334.62 910.42C1326.57 914.019 1317.48 915.818 1307.35 915.818ZM1662.96 664.682L1632.85 673.205C1630.95 668.186 1628.16 663.309 1624.47 658.574C1620.87 653.744 1615.94 649.767 1609.69 646.642C1603.44 643.517 1595.44 641.955 1585.69 641.955C1572.34 641.955 1561.21 645.032 1552.31 651.188C1543.5 657.248 1539.1 664.966 1539.1 674.341C1539.1 682.674 1542.13 689.256 1548.19 694.085C1554.25 698.915 1563.72 702.939 1576.6 706.159L1608.98 714.114C1628.49 718.848 1643.03 726.093 1652.59 735.847C1662.16 745.506 1666.94 757.958 1666.94 773.205C1666.94 785.705 1663.34 796.879 1656.14 806.727C1649.04 816.576 1639.1 824.341 1626.31 830.023C1613.53 835.705 1598.66 838.545 1581.71 838.545C1559.46 838.545 1541.04 833.716 1526.46 824.057C1511.87 814.398 1502.64 800.288 1498.76 781.727L1530.58 773.773C1533.61 785.515 1539.33 794.322 1547.76 800.193C1556.29 806.064 1567.41 809 1581.14 809C1596.77 809 1609.17 805.686 1618.36 799.057C1627.64 792.333 1632.28 784.284 1632.28 774.909C1632.28 767.333 1629.63 760.989 1624.33 755.875C1619.02 750.667 1610.88 746.784 1599.89 744.227L1563.53 735.705C1543.55 730.97 1528.87 723.631 1519.5 713.688C1510.22 703.65 1505.58 691.102 1505.58 676.045C1505.58 663.735 1509.03 652.845 1515.94 643.375C1522.95 633.905 1532.47 626.472 1544.5 621.074C1556.62 615.676 1570.35 612.977 1585.69 612.977C1607.28 612.977 1624.23 617.712 1636.54 627.182C1648.95 636.652 1657.75 649.152 1662.96 664.682ZM1812.29 615.818V644.227H1699.22V615.818H1812.29ZM1732.17 563.545H1765.7V771.5C1765.7 780.97 1767.07 788.072 1769.82 792.807C1772.66 797.447 1776.25 800.572 1780.61 802.182C1785.06 803.697 1789.75 804.455 1794.67 804.455C1798.37 804.455 1801.4 804.265 1803.76 803.886C1806.13 803.413 1808.03 803.034 1809.45 802.75L1816.26 832.864C1813.99 833.716 1810.82 834.568 1806.75 835.42C1802.68 836.367 1797.51 836.841 1791.26 836.841C1781.79 836.841 1772.51 834.805 1763.42 830.733C1754.43 826.661 1746.95 820.458 1740.98 812.125C1735.11 803.792 1732.17 793.28 1732.17 780.591V563.545ZM1951.85 838.545C1930.82 838.545 1912.69 833.905 1897.44 824.625C1882.29 815.25 1870.6 802.182 1862.36 785.42C1854.21 768.564 1850.14 748.962 1850.14 726.614C1850.14 704.265 1854.21 684.568 1862.36 667.523C1870.6 650.383 1882.05 637.03 1896.73 627.466C1911.51 617.807 1928.74 612.977 1948.44 612.977C1959.8 612.977 1971.02 614.871 1982.1 618.659C1993.18 622.447 2003.27 628.602 2012.36 637.125C2021.45 645.553 2028.69 656.727 2034.09 670.648C2039.49 684.568 2042.19 701.708 2042.19 722.068V736.273H1874.01V707.295H2008.1C2008.1 694.985 2005.63 684 2000.71 674.341C1995.88 664.682 1988.97 657.059 1979.97 651.472C1971.07 645.884 1960.56 643.091 1948.44 643.091C1935.09 643.091 1923.53 646.405 1913.78 653.034C1904.12 659.568 1896.69 668.091 1891.48 678.602C1886.27 689.114 1883.66 700.383 1883.66 712.409V731.727C1883.66 748.205 1886.51 762.172 1892.19 773.631C1897.96 784.994 1905.97 793.659 1916.19 799.625C1926.42 805.496 1938.3 808.432 1951.85 808.432C1960.65 808.432 1968.61 807.201 1975.71 804.739C1982.91 802.182 1989.11 798.394 1994.32 793.375C1999.53 788.261 2003.55 781.917 2006.39 774.341L2038.78 783.432C2035.37 794.417 2029.64 804.076 2021.59 812.409C2013.54 820.648 2003.6 827.087 1991.76 831.727C1979.92 836.273 1966.62 838.545 1951.85 838.545ZM2093.18 834V615.818H2125.57V649.909H2128.41C2132.95 638.261 2140.29 629.218 2150.43 622.778C2160.56 616.244 2172.73 612.977 2186.93 612.977C2201.33 612.977 2213.3 616.244 2222.87 622.778C2232.53 629.218 2240.06 638.261 2245.45 649.909H2247.73C2253.31 638.64 2261.7 629.691 2272.87 623.062C2284.04 616.339 2297.44 612.977 2313.07 612.977C2332.58 612.977 2348.53 619.085 2360.94 631.301C2373.34 643.422 2379.55 662.314 2379.55 687.977V834H2346.02V687.977C2346.02 671.879 2341.62 660.373 2332.81 653.46C2324.01 646.547 2313.64 643.091 2301.7 643.091C2286.36 643.091 2274.48 647.731 2266.05 657.011C2257.62 666.197 2253.41 677.845 2253.41 691.955V834H2219.32V684.568C2219.32 672.163 2215.29 662.172 2207.24 654.597C2199.2 646.926 2188.83 643.091 2176.14 643.091C2167.42 643.091 2159.28 645.411 2151.7 650.051C2144.22 654.691 2138.16 661.131 2133.52 669.369C2128.98 677.513 2126.7 686.936 2126.7 697.636V834H2093.18Z" fill="white"/>
</svg>
